<?xml version="1.0" standalone="no"?>
<!DOCTYPE svg PUBLIC "-//W3C//DTD SVG 20010904//EN"
 "http://www.w3.org/TR/2001/REC-SVG-20010904/DTD/svg10.dtd">
<svg version="1.0" xmlns="http://www.w3.org/2000/svg"
 width="2481.000000pt" height="2439.000000pt" viewBox="0 0 2481.000000 2439.000000"
 preserveAspectRatio="xMidYMid meet">

<g transform="translate(0.000000,2439.000000) scale(0.100000,-0.100000)"
fill="#000000" stroke="none">
<path d="M12085 23964 c-385 -98 -880 -227 -1035 -269 -69 -19 -237 -64 -375
-100 -137 -37 -306 -82 -375 -100 -69 -19 -219 -59 -335 -90 -115 -31 -266
-72 -335 -90 -274 -75 -583 -158 -940 -255 -415 -112 -730 -198 -980 -266 -91
-25 -239 -66 -330 -91 -497 -136 -488 -132 -603 -246 -110 -109 -210 -260
-254 -381 -59 -167 -18 -434 93 -613 97 -156 216 -252 404 -324 105 -41 347
-111 645 -189 88 -23 303 -80 478 -126 175 -46 321 -84 323 -84 2 0 4 -587 4
-1304 l0 -1304 -72 -12 c-340 -55 -468 -108 -668 -276 -199 -166 -412 -405
-1161 -1304 -673 -807 -766 -926 -837 -1068 l-37 -76 0 -207 0 -207 -160 -6
c-88 -3 -524 -8 -970 -11 -919 -7 -1527 -19 -1695 -35 -147 -14 -238 -39 -352
-96 -206 -103 -337 -237 -520 -529 -131 -208 -278 -488 -653 -1243 l-365 -733
0 -4648 0 -4648 -80 -67 c-232 -196 -292 -323 -327 -696 -14 -153 -15 -210 -4
-460 14 -329 25 -449 52 -534 20 -68 137 -259 197 -322 82 -87 184 -123 425
-148 294 -32 651 -36 2981 -36 l2332 0 95 -98 c95 -98 189 -169 299 -224 188
-94 436 -98 5455 -98 5019 0 5267 4 5455 98 110 55 204 126 299 224 l95 98
2711 0 2710 0 107 64 c59 35 130 81 159 102 68 52 170 180 212 268 83 171 96
265 96 676 -1 669 -74 899 -340 1070 l-79 51 0 4664 0 4664 -345 693 c-354
712 -449 899 -563 1098 -242 425 -391 594 -630 714 -114 57 -205 82 -352 96
-169 16 -777 28 -1695 35 -445 3 -882 8 -970 11 l-160 6 3 256 3 257 -953 950
c-1022 1020 -1365 1347 -1561 1491 -34 25 -108 67 -164 94 l-103 49 0 1325 c0
729 3 1327 8 1330 10 6 741 194 772 198 24 3 25 0 32 -62 3 -36 9 -245 13
-465 9 -610 25 -786 84 -909 87 -184 353 -471 508 -547 54 -27 72 -31 145 -31
60 0 98 5 138 21 158 60 260 246 230 419 -17 97 -52 160 -153 269 -147 159
-180 254 -197 566 -12 207 -12 640 -1 792 12 162 21 183 121 289 130 138 182
223 236 386 25 76 28 99 28 225 0 134 -1 144 -32 226 -60 157 -207 351 -319
422 -42 27 -164 68 -358 122 -66 18 -219 61 -340 95 -121 34 -292 81 -380 105
-88 24 -254 69 -370 100 -115 32 -282 77 -370 101 -88 23 -243 65 -345 92
-375 102 -603 163 -920 247 -179 47 -381 101 -450 120 -69 18 -240 64 -380
100 -140 37 -302 79 -360 95 -231 63 -1288 331 -1300 329 -3 0 -135 -34 -295
-75z m759 -834 c320 -82 553 -143 1061 -279 99 -27 257 -69 350 -94 407 -109
593 -159 790 -212 116 -31 287 -77 380 -102 94 -25 251 -67 350 -94 844 -225
1266 -337 1469 -390 147 -39 221 -70 213 -92 -7 -21 -484 -160 -1222 -358
-104 -28 -262 -70 -350 -94 -88 -24 -279 -76 -425 -115 -146 -39 -321 -86
-390 -105 -69 -19 -312 -84 -540 -145 -228 -61 -496 -133 -595 -160 -99 -27
-265 -72 -370 -100 -247 -66 -520 -140 -720 -195 -88 -24 -222 -60 -298 -80
l-138 -37 -207 55 c-114 31 -301 81 -417 113 -115 31 -282 76 -370 99 -88 23
-248 66 -355 95 -107 29 -267 72 -355 95 -88 24 -252 68 -365 98 -113 31 -290
79 -395 107 -225 61 -537 146 -760 206 -88 24 -241 66 -340 93 -509 138 -1106
305 -1457 408 -48 14 -3 34 260 114 357 109 1162 334 1947 544 116 31 275 74
355 95 80 21 249 66 375 99 127 33 334 88 460 121 375 99 1256 317 1450 359
99 22 198 40 219 40 22 1 197 -39 390 -89z m-3294 -2686 c320 -87 1323 -357
1545 -415 791 -208 1124 -286 1315 -310 l88 -10 334 86 c457 117 1208 316
1458 385 58 16 173 47 255 69 225 60 496 133 725 196 113 31 207 57 210 57 21
1 30 -6 40 -34 21 -60 29 -446 30 -1400 l0 -948 -3146 0 -3146 0 5 1118 c3
673 9 1140 16 1175 13 77 32 98 74 86 18 -6 106 -30 197 -55z m7394 -3890
c429 -427 783 -780 784 -785 5 -13 -8853 -11 -9753 2 -390 5 -730 12 -755 14
-151 14 -177 17 -198 22 -13 3 -22 12 -20 19 2 7 64 87 140 176 75 90 275 330
444 533 312 375 546 646 626 722 l43 43 130 6 c182 9 3108 20 5644 22 l2133 2
782 -776z m1376 -1999 l0 -415 -5920 0 -5920 0 0 408 c0 225 3 412 7 415 3 4
2667 7 5920 7 l5913 0 0 -415z m-12617 -462 c37 -199 101 -326 236 -466 137
-142 296 -227 426 -227 65 0 92 -20 105 -75 5 -22 10 -201 10 -397 l0 -358
-1922 1 c-1877 1 -2539 7 -2554 21 -8 8 486 1005 592 1193 80 144 177 288 212
315 80 64 368 76 1838 78 l1041 2 16 -87z m16027 68 c167 -15 221 -27 260 -56
48 -35 126 -143 208 -286 98 -172 616 -1218 608 -1227 -15 -14 -681 -20 -2553
-21 l-1923 -1 0 358 c0 196 5 375 10 397 12 53 41 75 99 75 210 1 485 218 602
475 16 35 40 112 55 172 14 59 28 114 30 121 3 11 221 13 1241 9 823 -3 1280
-8 1363 -16z m-4190 -1176 l0 -415 -5135 0 -5135 0 0 415 0 415 5135 0 5135 0
0 -415z m-10270 -5510 l0 -4345 -2776 0 -2777 0 6 3943 c6 3433 14 4697 30
4714 23 23 711 29 3260 31 l2257 2 0 -4345z m9480 0 l0 -4345 -1199 0 -1199 0
-5 2283 c-6 2198 -9 2469 -37 2602 -22 107 -79 155 -209 175 -124 19 -706 29
-1696 29 -990 0 -1572 -10 -1696 -29 -130 -20 -187 -68 -209 -175 -28 -133
-31 -404 -37 -2603 l-5 -2282 -1199 0 -1199 0 0 4345 0 4345 4345 0 4345 0 0
-4345z m5521 4328 l796 -6 7 -2546 c3 -1400 9 -3350 12 -4333 l7 -1788 -2777
0 -2776 0 0 4347 0 4346 1968 -7 c1082 -3 2325 -9 2763 -13z m-8663 -6500 l2
-2173 -1205 0 -1205 0 0 2168 c0 1193 3 2172 7 2175 3 4 545 6 1202 5 l1196
-3 3 -2172z m-7128 -3378 l0 -415 -2565 0 -2565 0 0 415 0 415 2565 0 2565 0
0 -415z m11060 -185 l0 -600 -5135 0 -5135 0 0 600 0 600 5135 0 5135 0 0
-600z m5920 185 l0 -415 -2565 0 -2565 0 0 415 0 415 2565 0 2565 0 0 -415z"/>
<path d="M5598 10597 c-190 -80 -237 -146 -259 -364 -15 -145 -7 -915 10 -968
27 -84 167 -184 288 -206 117 -22 210 9 309 103 81 77 99 113 114 223 11 85 4
860 -9 965 -9 74 -10 76 -65 127 -32 30 -92 70 -141 94 -108 54 -166 60 -247
26z"/>
<path d="M3200 10584 c-62 -23 -143 -78 -175 -120 -84 -109 -99 -223 -91 -679
8 -484 18 -529 140 -627 139 -110 285 -134 421 -68 57 28 154 124 177 177 27
61 37 205 38 528 0 379 -11 501 -50 582 -36 73 -115 149 -196 189 -72 35 -194
43 -264 18z"/>
<path d="M3275 8214 c-11 -2 -45 -9 -75 -15 -104 -21 -149 -57 -199 -156 -107
-213 -107 -965 -1 -1174 32 -62 86 -116 148 -146 52 -25 68 -28 167 -28 136 0
176 16 272 107 86 82 101 119 115 271 15 173 4 770 -16 858 -40 181 -147 277
-315 285 -42 1 -85 1 -96 -2z"/>
<path d="M5610 8210 c-108 -23 -201 -95 -242 -186 -33 -75 -40 -204 -36 -648
5 -494 5 -492 93 -575 30 -29 81 -64 112 -79 50 -23 71 -27 148 -27 77 0 98 4
148 27 72 34 174 129 199 186 27 60 38 218 38 562 0 342 -12 504 -39 559 -29
56 -122 136 -186 160 -65 25 -172 34 -235 21z"/>
<path d="M3213 5842 c-66 -23 -124 -64 -173 -119 -78 -89 -95 -162 -112 -480
-20 -382 9 -638 86 -763 37 -59 104 -112 164 -131 70 -20 223 -23 286 -5 69
20 139 81 180 155 49 90 57 156 63 521 6 383 -4 552 -37 623 -29 61 -126 152
-197 184 -77 35 -186 42 -260 15z"/>
<path d="M5568 5842 c-106 -39 -184 -120 -216 -221 -15 -50 -17 -110 -17 -531
0 -567 -2 -555 89 -646 84 -84 146 -108 281 -108 86 0 108 3 155 25 61 28 140
103 165 154 30 64 36 131 41 470 7 400 -3 592 -36 660 -28 57 -130 152 -198
183 -72 33 -196 39 -264 14z"/>
<path d="M10857 10803 c-4 -3 -7 -241 -7 -529 l0 -522 43 -6 c23 -3 220 -8
437 -12 343 -6 400 -5 432 9 40 17 54 51 40 102 -15 55 -47 59 -376 45 -159
-6 -296 -14 -304 -18 -16 -6 -16 37 5 721 l6 217 -135 0 c-74 0 -138 -3 -141
-7z"/>
<path d="M11920 10281 l0 -530 53 -6 c28 -3 233 -7 453 -8 383 -2 403 -1 423
17 27 25 28 85 2 117 -19 24 -19 24 -228 21 -114 -1 -261 -5 -326 -10 -65 -4
-120 -5 -122 -2 -3 5 9 476 19 778 l6 152 -140 0 -140 0 0 -529z"/>
<path d="M13482 10801 c-43 -11 -44 -12 -53 -71 -21 -131 -275 -680 -431 -928
-15 -24 -18 -36 -10 -44 17 -17 169 -21 227 -6 l50 13 -3 55 c-3 78 28 137 90
168 92 46 336 39 438 -12 75 -38 97 -87 76 -173 -7 -27 -5 -33 15 -44 28 -14
210 -25 264 -15 48 9 54 29 18 74 -109 138 -416 793 -431 920 -3 30 -11 46
-25 54 -26 14 -181 20 -225 9z m116 -358 c20 -29 142 -268 142 -279 0 -3 -60
-5 -134 -2 -116 3 -137 6 -156 23 -28 26 -22 67 25 172 55 119 85 140 123 86z"/>
<path d="M15572 10278 l3 -533 325 -3 c337 -3 541 8 588 30 20 10 27 20 27 43
0 56 -22 60 -372 63 l-313 3 0 183 0 183 198 5 c226 5 262 14 262 68 0 54 -29
63 -229 70 -184 7 -214 14 -225 55 -3 11 -6 66 -6 122 l0 102 313 3 c344 3
369 7 375 60 5 43 -29 58 -159 68 -63 5 -266 10 -452 10 l-337 0 2 -532z"/>
<path d="M8650 10784 c-155 -40 -300 -146 -355 -257 -52 -106 -68 -257 -40
-375 42 -176 158 -301 344 -370 98 -36 266 -42 381 -13 147 37 276 116 307
189 12 30 12 37 -2 59 -23 34 -56 26 -140 -31 -100 -68 -161 -88 -291 -94
-173 -7 -254 24 -326 127 -87 125 -110 298 -54 418 36 79 113 153 203 196 64
30 75 32 178 32 103 0 114 -2 175 -31 36 -17 96 -54 134 -83 38 -28 73 -51 77
-51 14 0 46 36 64 70 35 67 10 92 -150 151 -212 78 -372 98 -505 63z"/>
<path d="M9945 10784 c-136 -34 -277 -128 -331 -220 -91 -155 -103 -362 -29
-517 34 -72 113 -160 189 -209 160 -104 394 -113 581 -24 86 40 192 136 234
209 107 189 90 415 -43 580 -44 55 -161 130 -252 162 -99 34 -256 43 -349 19z
m289 -155 c154 -76 254 -255 227 -403 -27 -145 -134 -276 -262 -321 -23 -8
-74 -15 -115 -16 -62 -1 -83 3 -138 29 -107 50 -159 114 -191 238 -40 153 8
348 104 423 83 65 133 81 241 78 66 -2 96 -8 134 -28z"/>
<path d="M14615 10785 c-147 -38 -288 -140 -348 -252 -54 -102 -73 -287 -42
-408 46 -177 190 -306 391 -351 156 -34 451 0 594 70 70 34 78 61 82 251 l3
160 -195 -2 c-249 -2 -303 -18 -287 -85 9 -36 49 -50 169 -57 125 -8 148 -21
148 -82 0 -81 -72 -123 -240 -140 -114 -11 -224 2 -287 33 -163 82 -243 344
-159 521 38 78 107 146 191 188 64 31 77 34 160 34 80 0 97 -4 155 -31 36 -17
94 -52 129 -78 77 -56 97 -58 117 -10 41 98 32 137 -40 169 -163 72 -406 104
-541 70z"/>
<path d="M18992 10589 c-137 -59 -207 -147 -232 -290 -16 -93 -24 -687 -12
-851 13 -170 26 -201 119 -289 125 -118 264 -138 420 -62 75 37 158 117 174
168 10 30 13 154 15 490 2 494 -6 645 -35 685 -28 39 -109 98 -191 137 -104
51 -161 54 -258 12z"/>
<path d="M21400 10597 c-216 -78 -267 -164 -290 -488 -12 -164 -11 -635 1
-730 14 -101 35 -145 102 -210 67 -66 118 -94 200 -110 114 -23 248 26 357
131 46 44 61 67 74 110 39 132 47 829 12 985 -36 154 -104 241 -231 294 -104
44 -146 47 -225 18z"/>
<path d="M19013 8205 c-75 -21 -122 -47 -170 -97 -64 -66 -82 -117 -93 -265
-12 -165 -12 -636 0 -780 11 -139 28 -180 107 -254 87 -83 149 -112 253 -117
106 -5 176 18 249 84 113 102 118 131 120 670 1 426 -5 528 -38 593 -38 74
-129 138 -238 166 -70 18 -121 18 -190 0z"/>
<path d="M21367 8210 c-125 -32 -210 -129 -243 -279 -20 -88 -31 -685 -16
-858 14 -152 29 -189 115 -271 96 -91 136 -107 272 -107 99 0 115 3 167 28 62
30 116 84 148 146 66 131 96 491 70 840 -29 374 -123 495 -395 507 -44 2 -97
-1 -118 -6z"/>
<path d="M19033 5846 c-95 -23 -225 -130 -259 -213 -23 -53 -34 -232 -34 -553
0 -321 11 -500 34 -553 22 -53 101 -126 176 -161 59 -28 74 -31 165 -31 89 0
107 3 163 29 84 39 152 113 177 192 16 52 19 108 22 493 6 565 -1 618 -95 703
-104 94 -219 125 -349 94z"/>
<path d="M21376 5844 c-63 -20 -118 -58 -178 -122 -63 -68 -77 -106 -90 -247
-15 -172 -4 -769 16 -858 19 -87 58 -156 117 -212 65 -61 132 -79 259 -72 261
14 351 135 380 507 19 251 7 553 -27 705 -32 147 -112 256 -210 289 -71 25
-207 30 -267 10z"/>
</g>
</svg>
