<?xml version="1.0" standalone="no"?>
<!DOCTYPE svg PUBLIC "-//W3C//DTD SVG 20010904//EN"
 "http://www.w3.org/TR/2001/REC-SVG-20010904/DTD/svg10.dtd">
<svg version="1.0" xmlns="http://www.w3.org/2000/svg"
 width="1903.000000pt" height="1477.000000pt" viewBox="0 0 1903.000000 1477.000000"
 preserveAspectRatio="xMidYMid meet">

<g transform="translate(0.000000,1477.000000) scale(0.100000,-0.100000)"
fill="#000000" stroke="none">
<path d="M7996 14651 c-16 -11 -39 -32 -52 -48 l-23 -28 -1 -1478 c0 -999 -3
-1485 -10 -1498 -11 -19 -51 -19 -2662 -19 -1733 0 -2692 -4 -2767 -10 -238
-21 -444 -95 -656 -235 -102 -68 -239 -196 -319 -299 -55 -71 -166 -246 -166
-262 0 -3 -6 -20 -14 -37 -48 -105 -68 -170 -91 -292 -22 -118 -22 -9159 0
-9275 54 -289 200 -552 417 -755 70 -65 199 -165 213 -165 2 0 24 -13 48 -30
25 -16 47 -30 51 -30 3 0 33 -13 68 -30 105 -49 230 -86 404 -119 87 -16
14051 -16 14138 0 91 17 245 56 296 74 45 16 227 104 265 128 120 75 289 227
362 325 15 20 30 39 33 42 14 12 108 171 137 230 42 85 97 261 117 376 15 83
16 493 16 4594 0 5006 6 4551 -67 4784 -171 542 -642 923 -1207 976 -71 6
-1033 10 -2767 10 -2413 0 -2657 1 -2663 16 -3 9 -6 680 -6 1491 0 1466 0
1476 -20 1509 -12 18 -37 42 -56 53 l-35 21 -1477 0 c-1436 0 -1478 -1 -1506
-19z m2799 -2556 l0 -2280 -1290 0 -1290 0 -3 2270 c-1 1249 0 2276 3 2283 3
10 267 12 1292 10 l1288 -3 0 -2280z m-2885 -824 c7 -13 10 -292 10 -835 0
-786 1 -817 19 -847 11 -17 32 -40 48 -50 27 -18 80 -19 1520 -19 l1491 0 46
45 46 44 0 825 c0 453 3 831 6 840 6 15 249 16 2654 16 1676 0 2686 -4 2751
-10 215 -21 393 -90 566 -221 227 -172 361 -389 423 -681 19 -92 20 -158 20
-4569 0 -4441 0 -4478 -20 -4574 -27 -132 -52 -205 -101 -296 -10 -20 -25 -47
-32 -60 -89 -169 -282 -347 -479 -443 -107 -52 -158 -68 -312 -96 -107 -20
-169 -20 -7060 -20 -6842 0 -6953 0 -7066 20 -63 10 -131 24 -150 31 -67 23
-205 83 -221 96 -8 7 -19 13 -22 13 -4 0 -45 27 -91 60 -216 153 -376 403
-435 675 l-21 101 0 4492 0 4492 21 92 c28 129 45 178 100 285 111 218 276
380 504 497 39 20 75 36 82 36 7 0 27 6 45 14 58 25 151 46 238 55 47 5 1283
9 2747 10 2623 1 2662 1 2673 -18z"/>
<path d="M9360 13540 c-305 -46 -575 -278 -675 -583 -103 -314 -12 -663 234
-892 124 -117 256 -184 431 -220 214 -44 475 16 660 150 99 73 270 280 270
329 0 8 4 17 9 20 5 3 20 43 34 88 67 212 49 442 -49 644 -46 93 -147 220
-226 283 -72 57 -236 142 -321 166 -67 19 -283 28 -367 15z m355 -321 c192
-79 317 -236 349 -439 14 -81 14 -101 0 -178 -22 -130 -70 -220 -163 -312
-173 -170 -407 -215 -627 -119 -43 19 -141 84 -169 114 -83 85 -138 191 -161
313 -17 85 -17 97 -2 182 29 164 114 297 246 383 121 79 193 98 349 92 86 -3
113 -9 178 -36z"/>
<path d="M5710 8823 c-58 -25 -92 -39 -155 -63 -33 -12 -73 -28 -90 -35 -16
-7 -50 -21 -75 -31 -25 -10 -64 -26 -87 -36 -23 -10 -46 -18 -52 -18 -6 0 -27
-7 -48 -16 -66 -29 -97 -42 -138 -57 -22 -8 -80 -32 -130 -52 -49 -21 -106
-43 -125 -50 -112 -42 -156 -60 -165 -67 -5 -4 -15 -8 -23 -8 -12 0 -44 -13
-139 -56 -17 -8 -35 -14 -40 -14 -11 0 -122 -46 -130 -54 -3 -3 -13 -6 -20 -6
-12 0 -42 -11 -128 -50 -11 -5 -45 -19 -75 -30 -30 -12 -70 -28 -88 -36 -18
-8 -38 -14 -45 -14 -15 -1 -46 -27 -75 -64 -32 -41 -30 -111 3 -156 29 -39 42
-47 140 -84 39 -15 83 -33 98 -41 16 -8 35 -15 42 -15 7 0 26 -7 42 -15 15 -8
71 -30 123 -50 52 -20 114 -45 138 -55 l42 -20 0 -379 c0 -209 -4 -390 -9
-403 -5 -13 -19 -93 -32 -178 -31 -206 -34 -614 -6 -780 58 -345 158 -592 331
-822 l96 -127 0 -145 c0 -98 -4 -147 -11 -152 -7 -4 -96 -6 -198 -5 -373 3
-631 -31 -831 -109 -30 -12 -67 -25 -81 -30 -34 -10 -209 -97 -229 -113 -8 -7
-27 -19 -42 -26 -55 -28 -240 -175 -322 -256 -273 -272 -456 -629 -518 -1010
-7 -47 -12 -383 -15 -1030 -4 -1074 -9 -1001 67 -1048 l35 -22 3055 0 3055 0
36 22 c75 47 71 -28 66 1063 l-4 975 -26 115 c-15 63 -31 134 -37 157 -5 23
-13 50 -19 60 -5 10 -17 41 -26 68 -41 120 -140 301 -243 445 -74 103 -265
298 -345 353 -19 13 -53 38 -75 55 -22 18 -42 32 -45 32 -3 0 -26 14 -51 30
-96 65 -298 155 -441 196 -188 53 -421 76 -738 73 -145 -2 -180 0 -188 12 -5
8 -9 78 -9 157 0 131 7 174 29 192 10 7 104 131 116 152 6 9 26 43 45 75 20
32 53 99 74 148 21 50 42 99 47 110 25 56 62 194 85 315 27 148 34 238 34 455
0 209 -6 296 -31 445 -6 36 -13 256 -16 492 l-4 427 38 23 c21 13 63 31 93 42
30 10 73 26 95 35 22 10 59 26 82 35 23 10 46 15 52 12 8 -5 11 -127 11 -398
l0 -391 39 -37 c79 -76 187 -55 232 44 17 38 19 75 19 544 0 456 -2 505 -17
530 -23 36 -64 71 -85 72 -9 0 -19 4 -23 9 -3 5 -19 13 -36 16 -27 6 -78 26
-144 55 -11 5 -63 25 -115 45 -101 39 -182 71 -215 85 -53 23 -235 95 -270
107 -22 7 -49 18 -60 22 -11 5 -63 26 -115 46 -52 20 -108 42 -125 49 -32 14
-58 24 -205 81 -52 20 -108 42 -123 50 -16 8 -35 15 -42 15 -7 0 -26 7 -42 15
-15 8 -71 30 -123 50 -52 20 -110 43 -128 51 -42 18 -127 17 -172 -3z m142
-297 c18 -8 49 -21 70 -30 20 -9 41 -16 46 -16 6 0 23 -6 39 -14 15 -8 47 -22
71 -30 49 -19 111 -43 167 -66 61 -25 126 -51 168 -66 44 -17 107 -41 162 -64
22 -9 60 -24 85 -34 25 -10 57 -24 72 -32 14 -8 31 -14 38 -14 7 0 26 -6 43
-14 18 -8 75 -30 127 -51 52 -20 106 -42 120 -50 14 -7 39 -16 56 -19 18 -4
40 -16 49 -26 20 -22 27 -16 -75 -55 -25 -9 -59 -23 -75 -30 -17 -7 -45 -16
-62 -19 -18 -4 -35 -12 -38 -17 -4 -5 -14 -9 -23 -9 -9 0 -48 -16 -87 -35 -38
-19 -77 -35 -86 -35 -8 0 -24 -7 -35 -15 -10 -8 -27 -15 -36 -15 -9 0 -29 -6
-45 -14 -15 -8 -53 -24 -83 -36 -30 -12 -64 -25 -75 -30 -75 -33 -119 -50
-130 -50 -8 0 -26 -6 -42 -14 -15 -8 -48 -22 -73 -32 -25 -10 -63 -25 -85 -34
-61 -25 -126 -51 -165 -65 -19 -7 -59 -23 -89 -35 -29 -12 -61 -19 -70 -16
-46 14 -329 125 -376 146 -21 10 -106 43 -167 66 -47 17 -110 42 -163 64 -49
20 -106 43 -160 63 -69 26 -219 88 -247 103 -14 8 -35 14 -46 14 -11 0 -33 7
-49 15 -15 8 -56 25 -91 38 -35 13 -64 28 -64 33 -1 10 43 34 122 64 30 12 64
25 75 30 11 5 63 26 115 46 150 57 422 165 452 179 15 8 41 16 58 20 16 4 32
11 35 16 4 5 13 9 21 9 8 0 34 8 57 18 23 10 62 26 87 36 25 10 59 24 75 31
31 13 68 28 170 66 33 13 64 27 70 31 14 12 51 10 87 -6z m-931 -1052 c46 -19
98 -42 116 -50 17 -8 37 -14 45 -14 8 0 18 -4 24 -8 9 -8 31 -17 214 -87 52
-19 104 -40 115 -45 11 -5 49 -21 85 -35 36 -14 74 -30 85 -34 11 -5 57 -23
103 -40 91 -35 105 -34 217 11 28 11 66 26 85 33 49 18 208 83 247 101 17 8
37 14 45 14 8 0 18 4 23 8 6 5 39 19 75 32 62 22 119 45 187 76 17 8 37 14 45
14 8 0 18 4 24 8 19 17 124 53 134 47 6 -4 10 -87 10 -230 0 -212 -1 -225 -19
-235 -30 -16 -1953 -14 -1969 2 -13 13 -18 449 -5 461 11 12 27 8 114 -29z
m1887 -751 c25 -49 37 -209 37 -478 0 -289 -4 -331 -56 -535 -19 -75 -100
-277 -123 -310 -6 -8 -20 -31 -30 -50 -52 -94 -210 -264 -305 -328 -287 -191
-607 -221 -921 -85 -19 8 -42 19 -50 24 -8 5 -24 13 -35 18 -70 31 -301 240
-326 295 -5 12 -28 48 -49 81 -22 33 -43 67 -46 75 -4 8 -19 42 -34 75 -38 84
-100 282 -100 321 0 12 -7 53 -16 91 -25 101 -24 547 0 693 10 58 20 111 22
118 3 9 214 12 1013 12 952 0 1011 -1 1019 -17z m-1388 -2102 c220 -67 387
-75 628 -32 71 13 224 67 291 102 81 43 81 43 81 -66 0 -107 -10 -138 -77
-226 -150 -200 -379 -298 -627 -268 -159 19 -279 80 -401 203 -104 106 -126
151 -133 274 -3 64 -1 96 6 101 7 4 47 -10 89 -31 43 -20 107 -46 143 -57z
m-493 -277 c13 -4 34 -27 49 -53 81 -139 237 -282 389 -355 176 -84 347 -115
533 -96 88 9 221 40 261 60 9 4 42 20 73 35 73 35 161 96 231 161 56 52 157
175 157 190 0 5 11 22 25 37 l26 27 202 0 c267 -1 470 -14 591 -40 55 -12 104
-24 109 -27 5 -3 23 -9 41 -13 66 -17 223 -87 291 -131 17 -10 37 -22 45 -26
34 -16 130 -87 195 -145 223 -198 387 -457 468 -738 54 -186 52 -149 52 -1075
l0 -860 -365 0 -365 0 -5 844 -5 843 -43 39 c-58 51 -98 58 -153 28 -23 -13
-52 -37 -63 -52 -21 -28 -21 -36 -26 -865 l-5 -837 -1828 -5 c-1005 -3 -1832
-3 -1837 -2 -7 3 -10 290 -10 836 l0 833 -23 34 c-24 36 -90 79 -122 79 -36 0
-108 -46 -127 -81 -17 -32 -18 -83 -18 -866 0 -660 -3 -833 -12 -833 -98 -2
-723 1 -725 4 -2 2 -3 373 -3 825 0 765 2 829 20 936 10 63 22 119 25 124 3 6
9 29 14 53 31 147 131 345 262 518 56 74 221 245 256 263 10 6 43 29 73 52 30
23 62 45 70 48 8 4 29 16 45 27 17 11 40 24 53 30 12 5 50 23 83 40 34 16 67
30 74 30 7 0 26 6 42 14 74 38 257 77 401 86 146 9 549 12 579 4z"/>
<path d="M9278 8009 c-17 -9 -18 -53 -18 -684 0 -370 3 -680 6 -689 6 -15 338
-16 3668 -16 2835 0 3665 3 3674 12 9 9 12 175 12 684 0 599 -2 674 -16 688
-14 15 -357 16 -3662 16 -2451 -1 -3653 -4 -3664 -11z m7172 -178 c6 -13 10
-193 10 -516 0 -323 -4 -503 -10 -516 -11 -19 -61 -19 -3508 -19 -2707 0
-3501 3 -3510 12 -17 17 -17 1029 0 1046 9 9 803 12 3510 12 3447 0 3497 0
3508 -19z"/>
<path d="M10319 7723 c-3 -28 1 -136 5 -141 3 -3 14 2 25 12 15 14 36 16 122
14 l104 -3 3 -274 c2 -234 0 -277 -13 -298 -9 -13 -13 -28 -10 -33 8 -14 192
-13 200 1 4 5 0 18 -9 28 -14 16 -16 52 -14 297 l3 279 104 3 c82 2 107 0 121
-13 9 -8 20 -12 23 -8 10 9 9 143 0 143 -5 0 -17 -7 -27 -15 -28 -21 -588 -21
-606 0 -13 16 -29 20 -31 8z"/>
<path d="M13322 7709 c-13 -5 -149 -8 -302 -8 -153 1 -283 -2 -290 -6 -8 -5
-6 -13 7 -27 16 -18 18 -46 21 -305 3 -268 2 -287 -17 -323 -17 -33 -18 -39
-5 -44 9 -3 153 -6 320 -6 196 0 304 -4 304 -10 0 -5 7 -10 15 -10 12 0 15 14
15 70 0 54 -3 70 -14 70 -8 0 -18 -4 -21 -10 -4 -6 -90 -10 -225 -10 -189 0
-219 2 -224 16 -11 29 -7 189 6 202 8 8 55 12 145 12 110 0 135 -3 139 -15 4
-8 12 -15 20 -15 11 0 14 18 14 75 0 57 -3 75 -14 75 -8 0 -16 -7 -20 -15 -4
-12 -29 -15 -139 -15 -90 0 -137 4 -145 12 -18 18 -16 162 2 177 17 14 409 11
439 -3 15 -7 17 -2 17 58 0 70 -3 73 -48 55z"/>
<path d="M14322 7659 c2 -51 6 -63 18 -60 39 12 221 12 235 1 13 -10 15 -57
15 -275 0 -250 -1 -264 -21 -289 -11 -14 -17 -30 -14 -36 8 -14 192 -13 200 1
4 5 0 18 -9 28 -14 16 -16 52 -14 297 l3 279 105 -1 c58 0 114 -3 125 -5 18
-4 20 1 20 56 0 58 -1 60 -25 56 -47 -8 -585 -5 -613 3 l-28 9 3 -64z"/>
<path d="M9802 7693 c-59 -17 -119 -52 -138 -81 -43 -65 -39 -143 9 -192 45
-46 79 -60 170 -71 175 -20 223 -32 248 -62 40 -47 11 -136 -57 -174 -51 -29
-132 -30 -216 -2 -68 22 -98 42 -117 77 -15 28 -28 28 -36 0 -4 -13 -15 -42
-26 -65 -10 -24 -19 -46 -19 -50 0 -8 37 -23 105 -43 17 -5 48 -14 70 -21 78
-23 191 -23 271 2 124 38 184 107 184 211 -1 92 -72 177 -160 193 -66 11 -175
26 -218 30 -113 10 -137 97 -40 146 85 43 268 4 315 -68 19 -29 25 -25 62 41
37 63 40 90 11 81 -10 -3 -29 -1 -42 6 -12 7 -36 16 -53 20 -16 4 -48 13 -70
19 -57 16 -203 18 -253 3z"/>
<path d="M11058 7702 c-22 -4 -22 -11 -3 -36 12 -16 15 -60 15 -220 1 -325 23
-388 150 -425 25 -7 57 -18 71 -23 34 -12 210 -5 269 11 98 27 155 81 171 164
4 23 8 141 9 261 0 187 2 222 16 237 9 10 14 21 11 26 -4 6 -150 10 -189 4
-13 -2 -9 -28 7 -41 13 -10 15 -50 15 -239 0 -207 -2 -229 -20 -258 -29 -49
-86 -73 -171 -73 -86 0 -131 19 -165 69 -24 35 -24 39 -24 262 0 192 2 229 15
239 9 7 15 20 13 29 -3 12 -20 15 -88 16 -47 0 -93 -1 -102 -3z"/>
<path d="M11897 7702 c-21 -4 -21 -11 -2 -32 13 -15 16 -62 16 -320 0 -266 -2
-305 -17 -321 -32 -35 -10 -39 218 -39 273 0 328 12 406 88 142 138 133 443
-16 560 -69 54 -117 63 -365 65 -123 1 -231 1 -240 -1z m462 -117 c53 -29 83
-70 99 -137 36 -143 -10 -295 -101 -338 -38 -18 -60 -20 -168 -18 l-124 3 -3
245 c-1 134 0 250 3 257 3 10 37 13 126 13 111 0 125 -2 168 -25z"/>
<path d="M13518 7702 c-22 -4 -22 -11 -3 -33 14 -14 16 -60 16 -319 0 -267 -2
-305 -17 -321 -27 -30 -8 -39 86 -39 94 0 113 9 86 39 -14 15 -16 48 -16 214
0 187 1 197 19 197 11 0 31 -15 46 -32 15 -18 66 -73 114 -123 47 -49 117
-123 154 -163 64 -70 67 -73 52 -96 -8 -12 -12 -26 -8 -29 10 -10 186 -8 203
3 12 7 11 12 -5 30 -19 21 -20 38 -20 320 0 279 1 299 19 319 11 12 16 24 13
28 -9 9 -174 11 -188 3 -8 -6 -7 -14 5 -31 12 -20 15 -60 16 -214 2 -213 -1
-222 -58 -159 -19 22 -96 103 -171 182 -75 79 -140 150 -144 158 -4 7 -3 23 3
35 7 11 9 23 6 27 -7 6 -180 9 -208 4z"/>
<path d="M15243 7692 c-3 -7 2 -21 11 -31 14 -15 16 -55 16 -319 0 -270 -2
-302 -17 -310 -10 -6 -14 -16 -10 -26 5 -13 23 -16 101 -16 53 0 98 4 101 10
3 6 -3 22 -14 36 -20 26 -21 39 -21 314 0 277 1 288 21 314 12 15 19 30 15 33
-3 4 -49 7 -102 7 -71 1 -98 -2 -101 -12z"/>
<path d="M15597 7702 c-20 -4 -21 -9 -2 -42 21 -38 21 -582 0 -624 -8 -15 -12
-32 -9 -37 3 -5 105 -9 227 -9 233 1 286 9 367 57 38 22 83 86 110 154 19 46
21 69 18 164 -3 94 -8 118 -31 165 -37 77 -98 133 -169 154 -47 14 -101 18
-276 19 -120 1 -226 1 -235 -1z m451 -113 c61 -30 96 -82 111 -168 25 -140
-19 -265 -108 -311 -34 -17 -59 -20 -166 -20 l-125 0 0 253 c0 140 3 257 7
260 3 4 58 7 122 7 97 0 122 -3 159 -21z"/>
<path d="M14965 7270 l0 -55 113 0 113 0 -3 53 -3 53 -110 2 -110 2 0 -55z"/>
<path d="M10455 5158 c-45 -25 -74 -62 -80 -102 -10 -65 5 -107 54 -144 l43
-32 2692 2 2692 3 30 25 c36 30 69 101 60 133 -10 39 -45 87 -78 107 -33 20
-56 20 -2713 20 -1935 -1 -2686 -4 -2700 -12z"/>
<path d="M10460 3623 c-34 -12 -79 -67 -85 -103 -8 -46 6 -101 32 -129 51 -54
-131 -51 2744 -51 2003 0 2661 3 2691 12 46 14 83 54 99 108 10 34 9 44 -12
87 -16 33 -35 54 -59 65 -33 17 -183 18 -2715 17 -1474 0 -2687 -3 -2695 -6z"/>
<path d="M10450 2079 c-56 -33 -75 -65 -75 -132 0 -56 2 -61 42 -98 l42 -39
2693 0 2693 0 37 25 c40 27 74 99 64 137 -11 44 -46 87 -85 108 -40 20 -42 20
-2708 20 l-2668 0 -35 -21z"/>
</g>
</svg>
