<?xml version="1.0" standalone="no"?>
<!DOCTYPE svg PUBLIC "-//W3C//DTD SVG 20010904//EN"
 "http://www.w3.org/TR/2001/REC-SVG-20010904/DTD/svg10.dtd">
<svg version="1.0" xmlns="http://www.w3.org/2000/svg"
 width="2481.000000pt" height="2439.000000pt" viewBox="0 0 2481.000000 2439.000000"
 preserveAspectRatio="xMidYMid meet">

<g transform="translate(0.000000,2439.000000) scale(0.100000,-0.100000)"
fill="#000000" stroke="none">
<path d="M200 20130 l0 -1760 2018 -2 2017 -3 -1 -1375 c0 -1202 -2 -1393 -17
-1521 -29 -265 -58 -375 -172 -664 -107 -274 -231 -627 -275 -790 -5 -16 -17
-61 -28 -100 -102 -354 -188 -763 -241 -1140 -69 -494 -85 -730 -85 -1270 0
-518 14 -744 76 -1200 17 -130 77 -497 93 -571 9 -38 24 -111 35 -163 36 -168
119 -494 161 -626 71 -228 123 -390 142 -440 8 -22 32 -85 52 -140 20 -55 40
-109 45 -120 4 -11 27 -67 50 -125 23 -58 50 -123 60 -145 10 -22 29 -67 43
-100 86 -204 258 -546 400 -795 405 -708 828 -1262 1396 -1831 694 -694 1386
-1231 2086 -1619 154 -85 631 -320 650 -320 2 0 28 -11 57 -24 355 -161 1021
-378 1563 -510 272 -66 309 -75 455 -106 464 -100 673 -131 970 -146 63 -3
165 -8 225 -10 274 -14 888 0 1195 25 74 7 188 16 253 21 136 11 389 44 527
69 566 100 1203 281 1748 497 811 321 1562 759 2258 1316 205 164 192 153 378
317 194 170 680 660 860 866 444 507 798 1007 1110 1568 78 141 299 580 328
652 9 22 27 65 41 95 139 305 317 808 421 1190 145 534 230 1038 288 1700 17
198 17 1164 0 1355 -38 426 -80 736 -138 1040 -54 282 -107 509 -179 765 -60
216 -175 554 -277 814 -149 383 -170 462 -200 766 -9 92 -12 482 -13 1460 l0
1335 1138 3 1138 2 -3 -3217 c-2 -1770 -7 -3303 -11 -3408 -8 -217 -25 -516
-33 -590 -13 -124 -46 -243 -73 -259 -13 -8 -45 -96 -72 -194 -11 -42 -26 -99
-34 -127 -7 -27 -29 -126 -49 -220 -20 -93 -41 -188 -46 -210 -12 -49 -43
-210 -65 -330 -9 -49 -20 -110 -25 -135 -5 -25 -14 -74 -20 -110 -6 -36 -16
-85 -21 -110 -9 -43 -101 -588 -119 -700 -5 -30 -36 -217 -70 -415 -88 -520
-105 -625 -145 -870 -19 -121 -40 -244 -45 -274 -5 -29 -8 -57 -5 -61 5 -9
129 -28 225 -34 36 -3 292 -11 570 -17 623 -15 1512 1 1715 32 38 5 74 14 79
19 9 9 -5 112 -76 530 -67 403 -192 1142 -217 1290 -49 285 -80 463 -85 495
-4 17 -17 93 -31 170 -14 77 -30 163 -35 190 -6 28 -28 140 -50 250 -97 488
-171 772 -216 825 -60 72 -85 271 -104 840 -6 162 -13 1723 -17 3468 l-6 3172
421 0 422 0 0 1760 0 1760 -12205 0 -12205 0 0 -1760z m15080 -419 c118 -16
263 -47 335 -73 158 -55 238 -109 391 -262 184 -184 288 -377 333 -616 27
-147 31 -182 31 -295 0 -449 -173 -824 -490 -1064 -220 -166 -470 -241 -800
-241 -245 0 -462 33 -595 91 -11 4 -46 19 -77 33 -294 127 -562 455 -653 801
-128 484 16 1024 359 1342 185 171 359 251 636 292 82 12 417 6 530 -8z
m-9020 -61 c65 -18 72 -28 74 -111 2 -66 28 -166 65 -254 5 -11 30 -72 56
-135 47 -116 465 -960 475 -960 3 0 13 17 22 38 10 20 54 107 99 192 285 546
440 872 494 1037 9 29 17 76 18 105 2 50 4 54 37 70 49 24 192 37 400 37 184
0 339 -13 371 -30 24 -12 24 -34 0 -67 -24 -36 -47 -156 -68 -355 -21 -210
-25 -1273 -4 -1487 25 -267 45 -371 83 -419 24 -32 23 -38 -13 -57 -26 -13
-84 -17 -340 -21 l-309 -6 0 79 c0 43 5 219 11 389 18 530 25 1083 14 1079 -6
-3 -21 -26 -35 -51 -14 -26 -82 -151 -151 -278 -69 -126 -147 -270 -173 -320
-27 -49 -52 -94 -56 -100 -4 -5 -38 -68 -75 -140 -74 -142 -118 -223 -145
-270 -9 -16 -41 -75 -70 -130 -149 -282 -141 -272 -167 -219 -11 22 -41 80
-68 129 -50 93 -85 159 -175 330 -48 89 -158 293 -265 490 -113 206 -257 455
-264 455 -5 0 -12 -7 -15 -16 -9 -24 -7 -538 4 -814 5 -135 12 -327 15 -428
l7 -182 -303 2 -304 3 -3 1205 c-1 663 0 1211 3 1219 4 11 66 12 358 8 232 -3
367 -9 397 -17z m4141 -3 c48 -20 58 -40 52 -102 -4 -39 3 -73 30 -155 42
-127 145 -382 235 -580 291 -642 617 -1275 715 -1386 21 -24 45 -44 52 -44 32
0 90 106 115 210 30 122 106 250 150 250 25 0 40 -21 40 -56 0 -24 8 -39 33
-60 44 -38 155 -88 262 -119 282 -82 402 -75 625 38 l85 43 -1 94 c0 115 -20
974 -34 1493 -6 208 -7 383 -4 389 5 7 102 9 308 5 369 -6 399 -13 346 -85
-30 -40 -47 -117 -64 -277 -21 -190 -37 -786 -36 -1319 1 -347 -2 -442 -12
-451 -7 -7 -55 -48 -107 -91 -284 -239 -314 -257 -452 -275 -85 -11 -235 -5
-749 31 -74 5 -369 16 -655 25 -507 14 -632 24 -642 51 -3 7 10 31 27 53 30
37 32 44 28 104 -3 51 -14 83 -56 170 -65 133 -115 188 -192 212 -46 15 -107
19 -383 23 -542 7 -593 -7 -673 -182 -48 -106 -79 -261 -63 -319 6 -22 8 -45
5 -53 -3 -7 -29 -20 -58 -29 -68 -21 -608 -35 -608 -17 0 11 38 91 288 602
373 764 349 715 459 965 41 94 80 184 88 200 19 44 83 217 118 320 24 73 30
106 29 175 0 46 4 94 9 107 19 50 100 61 414 58 191 -1 247 -5 276 -18z m8234
-1 c176 -25 216 -39 313 -105 184 -125 302 -372 302 -634 0 -191 -43 -298
-174 -435 -69 -72 -186 -172 -201 -172 -2 0 -45 -25 -96 -55 -50 -30 -95 -55
-99 -55 -4 0 -12 -6 -18 -13 -9 -10 9 -40 74 -128 84 -113 227 -306 469 -634
69 -93 125 -173 125 -179 0 -15 -633 1 -702 18 -31 8 -61 16 -66 20 -5 3 -12
27 -14 54 -14 147 -371 721 -511 823 -85 62 -90 63 -357 63 l-245 1 -3 -180
c-4 -205 12 -430 38 -557 18 -83 49 -160 70 -173 5 -3 10 -14 10 -25 0 -34
-53 -41 -372 -47 l-308 -6 0 1222 0 1223 828 -5 c687 -4 846 -7 937 -21z
m-9225 -5261 c136 -15 439 -58 535 -75 33 -6 87 -15 120 -20 65 -9 370 -59
555 -90 63 -11 158 -26 210 -34 409 -65 729 -119 830 -141 l55 -12 0 -904 0
-904 -1484 -3 c-817 -1 -1488 1 -1493 6 -7 7 5 169 42 567 5 61 15 164 20 230
12 134 55 495 71 595 58 373 89 531 135 700 12 41 35 70 68 85 41 18 181 18
336 0z m6351 -16 c102 -48 111 -73 149 -419 25 -218 68 -663 90 -915 11 -132
24 -287 30 -345 20 -216 23 -365 8 -377 -20 -17 -148 -31 -403 -44 -247 -13
-2432 -8 -2454 5 -8 5 -11 241 -11 872 0 475 1 864 3 864 1 0 119 20 262 45
329 58 639 100 825 114 147 11 269 25 350 41 98 18 209 43 280 62 41 10 125
32 185 48 220 58 359 80 500 77 116 -2 136 -5 186 -28z m1625 -118 c5 -4 54
-32 109 -61 194 -102 250 -133 270 -145 11 -6 70 -38 130 -70 313 -166 755
-451 974 -628 306 -249 685 -672 815 -910 45 -82 44 -108 -4 -119 -62 -13
-318 -28 -640 -38 -382 -12 -1487 -13 -1494 -2 -4 6 -29 335 -51 667 -3 44
-10 127 -16 185 -5 58 -14 152 -19 210 -6 58 -15 146 -20 195 -6 50 -17 158
-26 240 -8 83 -26 220 -40 305 -13 85 -24 161 -24 168 0 14 21 16 36 3z
m-9965 -38 c15 -46 7 -321 -15 -538 -15 -145 -26 -260 -46 -470 -5 -55 -16
-165 -24 -245 -16 -156 -18 -181 -41 -455 -9 -99 -18 -209 -22 -243 l-6 -64
-1041 6 c-957 5 -1194 10 -1213 29 -12 13 40 121 108 223 186 278 535 666 761
847 497 395 1370 943 1510 947 10 0 21 -13 29 -37z m7309 -3373 c427 -18 654
-30 765 -40 134 -12 569 -62 573 -66 4 -2 -14 -196 -38 -424 -6 -52 -19 -183
-31 -290 -33 -320 -44 -423 -59 -535 -5 -38 -14 -106 -20 -150 -71 -546 -140
-940 -178 -1025 -49 -109 -112 -143 -287 -160 -126 -11 -271 -44 -390 -86
-163 -59 -435 -108 -735 -134 -69 -6 -168 -15 -220 -19 -52 -5 -135 -10 -185
-11 -49 -1 -235 -9 -412 -18 -178 -10 -327 -16 -333 -14 -7 3 -10 493 -10
1472 l0 1468 58 6 c31 3 181 11 332 17 151 6 277 12 279 15 9 8 662 4 891 -6z
m-7423 -165 c27 -169 61 -511 78 -775 19 -309 35 -581 40 -680 3 -63 10 -193
16 -288 7 -95 10 -175 7 -177 -2 -2 -28 2 -58 9 -30 7 -80 19 -110 26 -109 25
-292 125 -560 303 -575 385 -1086 813 -1345 1127 -197 238 -377 515 -361 555
12 32 350 42 1416 41 l855 -1 22 -140z m4413 -1343 c0 -819 -2 -1491 -5 -1493
-2 -3 -39 -2 -82 2 -43 4 -148 12 -233 18 -205 15 -484 39 -590 52 -47 5 -123
14 -170 20 -47 5 -114 14 -150 19 -36 5 -119 17 -185 25 -66 9 -169 25 -230
35 -228 39 -351 61 -395 71 -25 6 -67 15 -95 20 -27 5 -90 17 -140 28 -49 10
-137 28 -195 40 -151 30 -148 29 -155 50 -14 46 -149 719 -186 931 -60 346
-117 810 -149 1215 -6 77 -17 205 -24 285 -7 80 -11 151 -8 158 3 9 312 12
1498 12 l1494 0 0 -1488z m7595 1398 c194 -13 374 -30 391 -37 75 -29 -194
-400 -541 -749 -197 -198 -344 -320 -565 -470 -172 -118 -531 -344 -545 -344
-2 0 -27 -13 -54 -29 -27 -16 -103 -58 -168 -92 -65 -34 -122 -65 -128 -69 -5
-4 -44 -25 -85 -47 -278 -149 -270 -145 -270 -126 0 10 11 88 24 173 14 85 32
220 40 300 9 80 20 188 26 240 17 157 29 285 45 480 14 177 55 741 55 768 0
15 1546 18 1775 2z m-13545 -2713 c14 -6 79 -46 145 -88 211 -135 660 -364
950 -486 33 -14 78 -33 100 -43 22 -10 87 -37 145 -59 58 -23 114 -46 125 -50
41 -18 183 -72 290 -109 162 -57 257 -99 322 -141 56 -36 113 -92 113 -111 0
-9 122 -345 139 -385 5 -11 37 -90 71 -175 34 -85 73 -179 86 -208 13 -29 24
-55 24 -58 0 -3 8 -24 19 -47 135 -306 178 -398 252 -547 48 -96 113 -220 145
-275 150 -262 224 -402 224 -426 0 -39 -236 98 -535 311 -625 445 -1183 931
-1566 1365 -529 598 -1119 1406 -1119 1532 0 26 14 26 70 0z m13255 -99 c-10
-32 -127 -266 -159 -316 -14 -23 -26 -44 -26 -47 0 -13 -159 -248 -233 -345
-228 -297 -547 -648 -959 -1055 -430 -426 -767 -723 -1023 -901 -230 -160
-546 -344 -592 -344 -7 0 -13 8 -13 19 0 31 108 284 202 474 48 98 88 179 88
181 0 2 25 55 54 119 149 313 320 709 372 860 38 111 95 238 136 303 82 132
191 203 495 324 361 144 462 185 508 206 28 12 79 35 115 51 36 16 90 40 120
53 49 21 316 155 666 334 213 109 261 125 249 84z m-8930 -1393 c17 -2 89 -8
160 -14 72 -6 150 -13 175 -16 25 -2 126 -12 225 -20 99 -9 248 -23 330 -31
83 -9 195 -20 250 -25 55 -4 145 -13 200 -19 55 -6 132 -13 170 -16 39 -3 80
-7 93 -10 l22 -4 0 -758 c0 -895 -16 -1472 -43 -1498 -8 -8 -75 21 -147 64
-275 165 -729 568 -942 837 -246 312 -547 759 -751 1118 -179 314 -203 385
-135 401 21 4 325 -2 393 -9z m4971 -11 c50 -21 59 -38 44 -87 -17 -59 -90
-207 -182 -371 -43 -76 -78 -139 -78 -141 0 -1 -34 -62 -75 -135 -41 -73 -75
-134 -75 -136 0 -2 -18 -33 -40 -69 -142 -231 -465 -609 -831 -971 -238 -235
-324 -304 -449 -362 -192 -89 -224 -102 -233 -93 -21 21 -29 397 -17 841 21
821 38 1295 49 1322 24 63 78 77 341 88 311 14 497 31 715 65 443 70 739 87
831 49z"/>
<path d="M14816 19325 c-237 -60 -443 -293 -544 -615 -32 -100 -42 -320 -21
-436 49 -271 217 -512 438 -628 187 -98 399 -118 594 -56 270 87 464 324 549
670 20 84 17 348 -6 430 -88 322 -299 535 -621 627 -75 21 -316 26 -389 8z"/>
<path d="M10030 18952 c-13 -31 -43 -97 -66 -147 -94 -203 -134 -300 -175
-430 -33 -102 -36 -130 -13 -139 42 -16 591 8 610 27 5 4 -43 125 -87 223 -10
22 -27 63 -38 91 -20 52 -35 84 -108 242 -23 51 -43 95 -43 97 0 11 -43 94
-49 94 -3 0 -17 -26 -31 -58z"/>
<path d="M17435 19277 c-3 -6 -4 -161 -3 -342 l3 -330 395 0 c413 0 491 6 635
47 125 36 207 93 247 172 29 58 30 184 0 241 -61 119 -190 179 -463 214 -125
16 -808 15 -814 -2z"/>
</g>
</svg>
